<svg width="180" height="124" viewBox="0 0 180 124" fill="none" xmlns="http://www.w3.org/2000/svg">
<path d="M150.497 59V116" stroke="#101828" stroke-width="7" stroke-linecap="round"/>
<path d="M30.997 113L150.997 113" stroke="#0084D1" stroke-width="7" stroke-linecap="round"/>
<rect x="159.497" y="119.5" width="20" height="20" rx="10" transform="rotate(-180 159.497 119.5)" fill="#85D2FF" stroke="#101828" stroke-width="5"/>
<path d="M149.997 14L29.997 14" stroke="#101828" stroke-width="7" stroke-linecap="round"/>
<path d="M26.497 68L26.497 11" stroke="#101828" stroke-width="7" stroke-linecap="round"/>
<mask id="path-6-inside-1_5_86" fill="white">
<rect x="13.997" y="2" width="25" height="25" rx="4"/>
</mask>
<rect x="13.997" y="2" width="25" height="25" rx="4" fill="#85D2FF" stroke="#101828" stroke-width="10" mask="url(#path-6-inside-1_5_86)"/>
<path d="M3.10788 85.4837C4.22653 72.4838 16.1082 56.4837 29.1081 58.4837C42.1079 60.4838 103.108 70.9837 103.108 70.9837C74.5 85.4837 82.406 91.1709 68.4971 105C61.3555 112.101 37.497 118.5 27.9972 116C22.6783 114.6 1.30083 106.484 3.10788 85.4837Z" fill="#0084D1"/>
<path d="M176.648 41.716C176.848 53.0422 165.175 68.9781 150.108 70.4837C135.041 71.9893 72.108 58.4837 72.108 58.4837C101 44.5001 89.5455 40.6133 110.108 21.9837C116.387 16.2948 141.498 9.40982 150.026 10.7402C157.024 10.6007 176.277 20.6416 176.648 41.716Z" fill="#101828"/>
<rect x="29.608" y="57.9837" width="120" height="13" fill="url(#paint0_linear_5_86)"/>
<defs>
<linearGradient id="paint0_linear_5_86" x1="29.608" y1="64.4837" x2="149.608" y2="64.4837" gradientUnits="userSpaceOnUse">
<stop stop-color="#0084D1"/>
<stop offset="1" stop-color="#101828"/>
</linearGradient>
</defs>
</svg>
